<svg width="399" height="432" viewBox="0 0 399 432" fill="none" xmlns="http://www.w3.org/2000/svg">
<path d="M78.3167 44.5348C36.1834 69.0681 0.983411 89.4681 0.0500776 90.1348C-1.01659 90.8015 14.9834 100.668 45.5167 118.268C71.3834 133.201 93.2501 146.001 94.1834 146.935C95.2501 148.001 95.6501 160.135 95.6501 187.335C95.6501 230.801 95.1167 228.135 105.25 233.335C113.917 237.735 133.383 242.135 155.383 244.535C180.983 247.468 237.917 246.801 258.983 243.335C284.317 239.201 298.317 234.668 304.317 228.668L307.65 225.335V184.268V143.201L320.45 135.868C327.517 131.868 333.783 128.268 334.45 128.135C335.117 127.868 335.65 140.001 335.65 157.868V188.001L331.783 191.335C327.117 195.335 325.783 200.001 327.65 206.001C328.983 210.001 328.583 212.135 324.45 224.001C321.783 231.335 319.65 238.135 319.65 239.201C319.65 240.135 322.983 242.668 326.983 244.535C336.717 249.335 348.583 248.935 356.85 243.468L362.317 239.868L356.85 224.535C352.717 212.535 351.783 208.668 352.85 206.668C356.183 200.535 352.05 190.001 345.65 188.401L342.317 187.601V155.868V124.001L346.05 121.468C348.05 120.135 360.45 112.801 373.65 105.201C386.85 97.7348 397.783 91.3348 398.05 91.2015C398.317 90.9348 243.25 1.06812 240.717 0.134781C240.183 -0.131882 239.65 8.80145 239.65 20.1348V40.5348L282.317 65.0681C305.783 78.5348 325.383 90.0014 325.65 90.5348C326.05 91.2015 306.85 102.801 282.983 116.535L239.65 141.601V162.135V182.801L244.05 180.135C250.983 175.868 282.717 157.735 286.05 156.001L288.983 154.401V181.335V208.135L284.85 212.001C275.917 220.401 250.717 225.201 211.383 226.135C163.117 227.335 130.317 222.135 118.717 211.468C115.783 208.801 115.65 208.001 115.65 183.735V158.668L132.05 168.001C140.983 173.201 150.317 178.668 152.717 180.135L156.983 182.801V162.135V141.468L113.65 116.535C89.7834 102.801 70.5834 91.2015 70.9834 90.6681C71.2501 90.1348 90.7167 78.5348 114.183 65.0681L156.983 40.5348V20.1348C156.983 9.06812 156.583 -0.131882 156.05 0.00144958C155.383 0.134781 120.45 20.1348 78.3167 44.5348Z" fill="url(#paint0_linear_10_32)"/>
<path d="M198.583 70.9348L166.183 140.935L166.583 160.135L166.983 179.201L199.383 109.201L231.783 39.0681L231.383 20.0015L230.983 0.934814L198.583 70.9348Z" fill="url(#paint1_linear_10_32)"/>
<path d="M278.983 292.135C276.85 292.935 273.25 295.068 271.117 297.068C264.45 303.201 263.65 306.935 263.65 332.268C263.65 353.868 263.917 355.868 266.717 361.201C270.183 367.735 278.717 373.201 285.383 373.201C292.317 373.201 300.717 368.268 304.317 362.001C307.25 356.935 307.65 354.668 307.65 343.468V330.535H296.983H286.317V337.201C286.317 343.735 286.45 343.868 290.317 343.868C294.05 343.868 294.317 344.135 294.317 349.201C294.317 355.468 290.717 359.868 285.65 359.868C283.783 359.868 281.117 358.668 279.65 357.201C277.25 354.801 276.983 352.801 276.983 331.868C276.983 310.935 277.25 308.935 279.65 306.535C285.383 300.801 294.317 305.201 294.317 313.868V318.535H300.983H307.65V313.068C307.65 306.268 303.117 298.001 297.65 294.535C292.45 291.335 284.183 290.268 278.983 292.135Z" fill="url(#paint2_linear_10_32)"/>
<path d="M36.9833 322.401C36.9833 351.201 36.85 353.068 34.1833 356.401C28.85 363.201 20.3167 359.868 18.7167 350.001C18.05 345.335 17.7833 345.201 12.1833 345.201H6.31665V350.535C6.31665 358.001 9.24998 364.268 14.45 368.268C26.45 377.335 42.1833 372.668 48.1833 358.268C49.9167 354.268 50.3167 347.335 50.3167 322.535V291.868H43.65H36.9833V322.401Z" fill="url(#paint3_linear_10_32)"/>
<path d="M67.65 292.801C67.65 293.468 64.7167 310.401 60.9833 330.535C57.3833 350.668 54.3167 368.268 54.3167 369.468C54.3167 371.468 55.5167 371.868 60.3167 371.868C66.05 371.868 66.1833 371.735 67.1167 367.201L67.9167 362.401L76.1833 362.801C84.05 363.201 84.3167 363.335 84.9833 367.201C85.65 370.935 86.1833 371.201 92.05 371.601C95.5167 371.868 98.3167 371.468 98.3167 370.935C98.3167 370.268 95.3833 352.535 91.65 331.335C88.05 310.135 84.9833 292.668 84.9833 292.401C84.9833 292.135 81.1167 291.868 76.3167 291.868C71.5167 291.868 67.65 292.268 67.65 292.801ZM78.9833 329.335C80.05 336.935 81.25 345.201 81.65 347.468L82.45 351.868H76.3167C72.45 351.868 70.3167 351.335 70.3167 350.135C70.3167 349.335 71.5167 341.335 72.9833 332.535C74.45 323.735 75.65 316.001 75.65 315.335C75.65 314.668 75.9167 314.401 76.3167 314.668C76.5833 315.068 77.7833 321.601 78.9833 329.335Z" fill="url(#paint4_linear_10_32)"/>
<path d="M107.65 301.601C107.65 307.068 107.25 325.068 106.717 341.601L105.917 371.868H112.717H119.65V354.535V337.201H128.983H138.317V354.535V371.868H144.983H151.65V331.868V291.868H144.983H138.317V307.868V323.868H128.983H119.65V307.868V291.868H113.65H107.65V301.601Z" fill="url(#paint5_linear_10_32)"/>
<path d="M165.783 328.135C162.317 348.135 159.117 366.268 158.717 368.268C157.917 372.001 157.917 372.001 164.45 371.601C170.583 371.201 170.983 370.935 171.65 367.201C172.317 363.335 172.583 363.201 180.717 362.801C188.183 362.401 188.983 362.668 188.983 365.068C188.983 370.535 190.45 371.868 196.45 371.868C200.85 371.868 202.317 371.335 202.317 369.735C202.317 367.735 190.983 300.935 189.65 294.801C188.983 292.135 188.183 291.868 180.583 291.868H172.317L165.783 328.135ZM183.783 332.268C185.117 341.201 186.317 349.335 186.317 350.135C186.317 351.335 184.183 351.868 180.183 351.868C174.45 351.868 174.05 351.601 174.717 348.801C175.117 347.201 176.45 338.801 177.783 330.268C179.117 321.601 180.45 314.801 180.717 315.201C181.117 315.601 182.45 323.201 183.783 332.268Z" fill="url(#paint6_linear_10_32)"/>
<path d="M211.65 331.868V371.868H217.65H223.65L223.783 350.801L223.917 329.868L233.917 350.801L244.05 371.868H249.25H254.317V331.735V291.735L248.05 292.135L241.783 292.535L242.183 315.201C242.317 329.068 242.05 337.335 241.25 336.535C240.583 335.735 235.917 325.468 230.85 313.468L221.65 291.868H216.717H211.65V331.868Z" fill="url(#paint7_linear_10_32)"/>
<path d="M316.983 331.868V371.868H323.65H330.317V331.868V291.868H323.65H316.983V331.868Z" fill="url(#paint8_linear_10_32)"/>
<path d="M340.983 331.735V371.868H347.65H354.317V354.535V337.201H360.317C364.983 337.201 367.25 338.001 369.65 340.535C372.717 343.601 372.983 344.668 372.983 357.868V371.868H379.65H386.317V357.601C386.317 345.868 385.783 342.401 383.517 337.601L380.717 331.868L383.783 326.935C388.45 319.468 388.183 308.535 383.25 302.001C377.25 294.268 372.983 292.668 356.05 292.135L340.983 291.601V331.735ZM371.25 308.135C375.117 311.735 375.25 317.601 371.65 321.201C369.65 323.201 367.25 323.868 361.65 323.868H354.317V314.535V305.201H361.25C366.45 305.201 368.85 305.868 371.25 308.135Z" fill="url(#paint9_linear_10_32)"/>
<path d="M45.668 426.738C44.8711 426.738 44.0742 426.598 43.2773 426.316C42.5039 426.035 41.7539 425.625 41.0273 425.086C40.3008 424.523 39.668 423.785 39.1289 422.871C38.5898 421.957 38.2969 420.867 38.25 419.602V406.91C38.25 406.254 38.4844 405.715 38.9531 405.293C39.4453 404.848 40.0195 404.625 40.6758 404.625C42.082 404.742 42.8438 405.504 42.9609 406.91V419.32C42.9844 419.883 43.1016 420.363 43.3125 420.762C43.5234 421.137 43.7578 421.441 44.0156 421.676C44.2734 421.887 44.5312 422.051 44.7891 422.168C45.0703 422.262 45.3516 422.309 45.6328 422.309C45.9141 422.309 46.1953 422.262 46.4766 422.168C46.7578 422.051 47.0273 421.887 47.2852 421.676C47.543 421.441 47.7773 421.137 47.9883 420.762C48.1992 420.363 48.3047 419.883 48.3047 419.32V406.91C48.3047 406.254 48.5391 405.715 49.0078 405.293C49.5 404.848 50.0742 404.625 50.7305 404.625C52.1367 404.742 52.9102 405.504 53.0508 406.91V419.32C53.0742 419.883 53.1914 420.352 53.4023 420.727C53.6133 421.125 53.8477 421.441 54.1055 421.676C54.3633 421.887 54.6211 422.051 54.8789 422.168C55.1602 422.262 55.4414 422.309 55.7227 422.309C56.0039 422.309 56.2852 422.262 56.5664 422.168C56.8477 422.051 57.1172 421.887 57.375 421.676C57.6328 421.441 57.8672 421.137 58.0781 420.762C58.2891 420.363 58.3945 419.883 58.3945 419.32V406.91C58.3945 406.254 58.6289 405.715 59.0977 405.293C59.5898 404.848 60.1641 404.625 60.8203 404.625C62.2266 404.742 63 405.504 63.1406 406.91V419.602C63.1406 420.867 62.8594 421.957 62.2969 422.871C61.7578 423.785 61.125 424.523 60.3984 425.086C59.6953 425.625 58.9453 426.035 58.1484 426.316C57.375 426.598 56.5781 426.738 55.7578 426.738C54.9609 426.738 54.1641 426.598 53.3672 426.316C52.5938 426.035 51.8438 425.613 51.1172 425.051C50.9766 424.957 50.8477 424.852 50.7305 424.734C50.5898 424.852 50.4609 424.957 50.3438 425.051C49.6172 425.613 48.8555 426.035 48.0586 426.316C47.2852 426.598 46.4883 426.738 45.668 426.738ZM74.9531 425.93C72.8906 425.859 71.332 425.379 70.2773 424.488C69.2227 423.574 68.4609 422.555 67.9922 421.43C67.5234 420.281 67.2891 419.121 67.2891 417.949C67.2891 416.73 67.5117 415.559 67.957 414.434C68.4258 413.285 69.1875 412.266 70.2422 411.375C71.3203 410.461 72.6797 409.992 74.3203 409.969H87.6797C88.3359 409.969 88.8867 410.191 89.332 410.637C89.8008 411.059 90.0352 411.574 90.0352 412.184C90.0352 412.816 89.8008 413.355 89.332 413.801C88.8867 414.223 88.3359 414.434 87.6797 414.434H74.5312C74.0156 414.434 73.5586 414.609 73.1602 414.961C72.7852 415.312 72.5039 415.77 72.3164 416.332C72.1523 416.895 72.0703 417.445 72.0703 417.984C72.0703 418.57 72.1523 419.145 72.3164 419.707C72.5039 420.27 72.7852 420.727 73.1602 421.078C73.5586 421.406 74.0156 421.582 74.5312 421.605H87.6797C88.3359 421.605 88.8867 421.816 89.332 422.238C89.8008 422.66 90.0352 423.164 90.0352 423.75C90.0352 424.359 89.8008 424.875 89.332 425.297C88.8867 425.719 88.3359 425.93 87.6797 425.93H74.9531ZM89.6133 417.879C89.6133 418.324 89.4141 418.711 89.0156 419.039C88.6641 419.344 88.2188 419.496 87.6797 419.496H76.1836C75.6445 419.496 75.1875 419.344 74.8125 419.039C74.4375 418.711 74.25 418.324 74.25 417.879C74.25 417.457 74.4375 417.082 74.8125 416.754C75.1875 416.449 75.6445 416.297 76.1836 416.297H87.6797C88.2188 416.297 88.6758 416.461 89.0508 416.789C89.4258 417.094 89.6133 417.457 89.6133 417.879ZM98.8242 406.91V420.305C98.8242 420.891 99.1289 421.195 99.7383 421.219H112.043C112.488 421.195 112.875 421.008 113.203 420.656C113.531 420.281 113.766 419.859 113.906 419.391C114.07 418.898 114.152 418.406 114.152 417.914C114.152 417.445 114.07 416.977 113.906 416.508C113.766 416.016 113.531 415.594 113.203 415.242C112.875 414.867 112.488 414.68 112.043 414.68H103.043C102.387 414.68 101.824 414.457 101.355 414.012C100.91 413.543 100.688 412.98 100.688 412.324C100.688 411.668 100.922 411.117 101.391 410.672C101.836 410.203 102.387 409.969 103.043 409.969H111.902C113.543 409.992 114.891 410.461 115.945 411.375C117.023 412.266 117.785 413.285 118.23 414.434C118.699 415.559 118.934 416.73 118.934 417.949C118.934 419.121 118.699 420.281 118.23 421.43C117.762 422.555 117 423.574 115.945 424.488C114.891 425.379 113.332 425.859 111.27 425.93H96.5039C95.8477 425.93 95.2852 425.719 94.8164 425.297C94.3477 424.852 94.1016 424.301 94.0781 423.645V406.91C94.0781 406.254 94.3125 405.715 94.7812 405.293C95.2734 404.848 95.8477 404.625 96.5039 404.625C97.9102 404.742 98.6836 405.504 98.8242 406.91ZM155.988 405.188C157.629 405.281 158.977 405.914 160.031 407.086C161.086 408.234 161.848 409.547 162.316 411.023C162.785 412.5 163.02 414.012 163.02 415.559C163.02 417.105 162.785 418.617 162.316 420.094C161.871 421.57 161.109 422.895 160.031 424.066C158.977 425.215 157.629 425.836 155.988 425.93H143.051C142.418 425.906 141.879 425.684 141.434 425.262C141.012 424.816 140.789 424.277 140.766 423.645V414.926C140.789 414.27 141.035 413.73 141.504 413.309C141.973 412.863 142.535 412.641 143.191 412.641C143.824 412.664 144.363 412.898 144.809 413.344C145.254 413.766 145.488 414.293 145.512 414.926V420.27C145.512 420.902 145.84 421.219 146.496 421.219H154.793C155.684 421.172 156.422 420.832 157.008 420.199C157.594 419.566 158.016 418.852 158.273 418.055C158.555 417.234 158.695 416.402 158.695 415.559C158.695 414.715 158.555 413.895 158.273 413.098C158.016 412.277 157.594 411.551 157.008 410.918C156.422 410.285 155.684 409.945 154.793 409.898H143.051C141.645 409.781 140.883 409.02 140.766 407.613C140.766 406.957 140.977 406.395 141.398 405.926C141.844 405.457 142.395 405.211 143.051 405.188H155.988ZM174.059 425.93C171.996 425.859 170.438 425.379 169.383 424.488C168.328 423.574 167.566 422.555 167.098 421.43C166.629 420.281 166.395 419.121 166.395 417.949C166.395 416.73 166.617 415.559 167.062 414.434C167.531 413.285 168.293 412.266 169.348 411.375C170.426 410.461 171.785 409.992 173.426 409.969H186.785C187.441 409.969 187.992 410.191 188.438 410.637C188.906 411.059 189.141 411.574 189.141 412.184C189.141 412.816 188.906 413.355 188.438 413.801C187.992 414.223 187.441 414.434 186.785 414.434H173.637C173.121 414.434 172.664 414.609 172.266 414.961C171.891 415.312 171.609 415.77 171.422 416.332C171.258 416.895 171.176 417.445 171.176 417.984C171.176 418.57 171.258 419.145 171.422 419.707C171.609 420.27 171.891 420.727 172.266 421.078C172.664 421.406 173.121 421.582 173.637 421.605H186.785C187.441 421.605 187.992 421.816 188.438 422.238C188.906 422.66 189.141 423.164 189.141 423.75C189.141 424.359 188.906 424.875 188.438 425.297C187.992 425.719 187.441 425.93 186.785 425.93H174.059ZM188.719 417.879C188.719 418.324 188.52 418.711 188.121 419.039C187.77 419.344 187.324 419.496 186.785 419.496H175.289C174.75 419.496 174.293 419.344 173.918 419.039C173.543 418.711 173.355 418.324 173.355 417.879C173.355 417.457 173.543 417.082 173.918 416.754C174.293 416.449 174.75 416.297 175.289 416.297H186.785C187.324 416.297 187.781 416.461 188.156 416.789C188.531 417.094 188.719 417.457 188.719 417.879ZM198.738 424.066C197.543 422.449 196.348 420.328 195.152 417.703L192.867 412.781C192.75 412.523 192.68 412.242 192.656 411.938C192.609 411.281 192.809 410.719 193.254 410.25C193.699 409.781 194.285 409.547 195.012 409.547C195.809 409.547 196.395 409.711 196.77 410.039C197.168 410.344 197.484 410.742 197.719 411.234L199.371 415.312C199.793 416.273 200.203 417.188 200.602 418.055C201.023 418.898 201.492 419.672 202.008 420.375C202.547 421.078 203.145 421.453 203.801 421.5C204.434 421.453 205.031 421.078 205.594 420.375C206.086 419.672 206.531 418.898 206.93 418.055C207.352 417.188 207.773 416.273 208.195 415.312L209.848 411.234C210.082 410.742 210.387 410.344 210.762 410.039C211.16 409.711 211.758 409.547 212.555 409.547C213.281 409.547 213.867 409.781 214.312 410.25C214.758 410.719 214.957 411.281 214.91 411.938C214.887 412.242 214.816 412.523 214.699 412.781L212.414 417.703C211.219 420.328 210.023 422.449 208.828 424.066C207.68 425.66 206.004 426.469 203.801 426.492C201.574 426.469 199.887 425.66 198.738 424.066ZM226.02 425.93C223.957 425.859 222.398 425.379 221.344 424.488C220.289 423.574 219.527 422.555 219.059 421.43C218.59 420.281 218.355 419.121 218.355 417.949C218.355 416.73 218.578 415.559 219.023 414.434C219.492 413.285 220.254 412.266 221.309 411.375C222.387 410.461 223.746 409.992 225.387 409.969H238.746C239.402 409.969 239.953 410.191 240.398 410.637C240.867 411.059 241.102 411.574 241.102 412.184C241.102 412.816 240.867 413.355 240.398 413.801C239.953 414.223 239.402 414.434 238.746 414.434H225.598C225.082 414.434 224.625 414.609 224.227 414.961C223.852 415.312 223.57 415.77 223.383 416.332C223.219 416.895 223.137 417.445 223.137 417.984C223.137 418.57 223.219 419.145 223.383 419.707C223.57 420.27 223.852 420.727 224.227 421.078C224.625 421.406 225.082 421.582 225.598 421.605H238.746C239.402 421.605 239.953 421.816 240.398 422.238C240.867 422.66 241.102 423.164 241.102 423.75C241.102 424.359 240.867 424.875 240.398 425.297C239.953 425.719 239.402 425.93 238.746 425.93H226.02ZM240.68 417.879C240.68 418.324 240.48 418.711 240.082 419.039C239.73 419.344 239.285 419.496 238.746 419.496H227.25C226.711 419.496 226.254 419.344 225.879 419.039C225.504 418.711 225.316 418.324 225.316 417.879C225.316 417.457 225.504 417.082 225.879 416.754C226.254 416.449 226.711 416.297 227.25 416.297H238.746C239.285 416.297 239.742 416.461 240.117 416.789C240.492 417.094 240.68 417.457 240.68 417.879ZM247.57 404.625C248.203 404.648 248.742 404.883 249.188 405.328C249.633 405.75 249.867 406.277 249.891 406.91V424.137C249.75 425.543 248.977 426.305 247.57 426.422C246.914 426.422 246.34 426.211 245.848 425.789C245.379 425.344 245.145 424.793 245.145 424.137V406.91C245.168 406.254 245.414 405.715 245.883 405.293C246.352 404.848 246.914 404.625 247.57 404.625ZM261.633 425.93C259.57 425.859 258.012 425.379 256.957 424.488C255.902 423.574 255.141 422.555 254.672 421.43C254.203 420.281 253.969 419.121 253.969 417.949C253.969 416.73 254.191 415.559 254.637 414.434C255.105 413.285 255.867 412.266 256.922 411.375C258 410.461 259.359 409.992 261 409.969H272.391C274.031 409.992 275.379 410.461 276.434 411.375C277.512 412.266 278.273 413.285 278.719 414.434C279.188 415.559 279.422 416.73 279.422 417.949C279.422 419.121 279.188 420.281 278.719 421.43C278.25 422.555 277.488 423.574 276.434 424.488C275.379 425.379 273.82 425.859 271.758 425.93H261.633ZM260.859 414.68C260.414 414.68 260.027 414.867 259.699 415.242C259.371 415.594 259.125 416.016 258.961 416.508C258.82 416.977 258.75 417.445 258.75 417.914C258.75 418.406 258.82 418.898 258.961 419.391C259.125 419.859 259.371 420.281 259.699 420.656C260.027 421.008 260.414 421.195 260.859 421.219H272.531C272.977 421.195 273.363 421.008 273.691 420.656C274.02 420.281 274.254 419.859 274.395 419.391C274.559 418.898 274.641 418.406 274.641 417.914C274.641 417.445 274.559 416.977 274.395 416.508C274.254 416.016 274.02 415.594 273.691 415.242C273.363 414.867 272.977 414.68 272.531 414.68H260.859ZM288.211 428.988C288.07 430.395 287.297 431.156 285.891 431.273C285.234 431.273 284.66 431.051 284.168 430.605C283.699 430.184 283.465 429.645 283.465 428.988V412.254C283.488 411.598 283.734 411.059 284.203 410.637C284.672 410.191 285.234 409.969 285.891 409.969H300.656C302.719 410.039 304.277 410.531 305.332 411.445C306.387 412.336 307.148 413.355 307.617 414.504C308.086 415.629 308.32 416.777 308.32 417.949C308.32 419.168 308.086 420.352 307.617 421.5C307.172 422.625 306.41 423.645 305.332 424.559C304.277 425.449 302.93 425.906 301.289 425.93H292.43C291.773 425.93 291.223 425.695 290.777 425.227C290.309 424.781 290.074 424.23 290.074 423.574C290.074 422.918 290.297 422.367 290.742 421.922C291.211 421.453 291.773 421.219 292.43 421.219H301.43C301.875 421.219 302.262 421.043 302.59 420.691C302.918 420.316 303.152 419.895 303.293 419.426C303.457 418.934 303.539 418.453 303.539 417.984C303.539 417.492 303.457 417.012 303.293 416.543C303.152 416.051 302.918 415.629 302.59 415.277C302.262 414.902 301.875 414.703 301.43 414.68H289.125C288.516 414.703 288.211 415.008 288.211 415.594V428.988ZM319.816 425.93C317.754 425.859 316.195 425.379 315.141 424.488C314.086 423.574 313.324 422.555 312.855 421.43C312.387 420.281 312.152 419.121 312.152 417.949C312.152 416.73 312.375 415.559 312.82 414.434C313.289 413.285 314.051 412.266 315.105 411.375C316.184 410.461 317.543 409.992 319.184 409.969H332.543C333.199 409.969 333.75 410.191 334.195 410.637C334.664 411.059 334.898 411.574 334.898 412.184C334.898 412.816 334.664 413.355 334.195 413.801C333.75 414.223 333.199 414.434 332.543 414.434H319.395C318.879 414.434 318.422 414.609 318.023 414.961C317.648 415.312 317.367 415.77 317.18 416.332C317.016 416.895 316.934 417.445 316.934 417.984C316.934 418.57 317.016 419.145 317.18 419.707C317.367 420.27 317.648 420.727 318.023 421.078C318.422 421.406 318.879 421.582 319.395 421.605H332.543C333.199 421.605 333.75 421.816 334.195 422.238C334.664 422.66 334.898 423.164 334.898 423.75C334.898 424.359 334.664 424.875 334.195 425.297C333.75 425.719 333.199 425.93 332.543 425.93H319.816ZM334.477 417.879C334.477 418.324 334.277 418.711 333.879 419.039C333.527 419.344 333.082 419.496 332.543 419.496H321.047C320.508 419.496 320.051 419.344 319.676 419.039C319.301 418.711 319.113 418.324 319.113 417.879C319.113 417.457 319.301 417.082 319.676 416.754C320.051 416.449 320.508 416.297 321.047 416.297H332.543C333.082 416.297 333.539 416.461 333.914 416.789C334.289 417.094 334.477 417.457 334.477 417.879ZM339.68 414.398C340.125 413.273 340.875 412.266 341.93 411.375C343.008 410.461 344.367 409.992 346.008 409.969H359.227C359.883 409.969 360.434 410.203 360.879 410.672C361.348 411.117 361.582 411.668 361.582 412.324C361.582 412.98 361.348 413.543 360.879 414.012C360.434 414.457 359.883 414.68 359.227 414.68H345.867C345.422 414.68 345.035 414.867 344.707 415.242C344.379 415.594 344.121 416.016 343.934 416.508C343.77 417 343.688 417.469 343.688 417.914V424.066C343.547 425.473 342.773 426.234 341.367 426.352C340.711 426.352 340.137 426.141 339.645 425.719C339.176 425.273 338.941 424.723 338.941 424.066V417.949H338.977C338.977 416.73 339.211 415.547 339.68 414.398Z" fill="url(#paint10_linear_10_32)"/>
<defs>
<linearGradient id="paint0_linear_10_32" x1="202.5" y1="-12.3781" x2="201.348" y2="247.881" gradientUnits="userSpaceOnUse">
<stop stop-color="#CBACF9"/>
<stop offset="0.631667" stop-color="#A88ECE" stop-opacity="0.92"/>
<stop offset="1" stop-color="#786693"/>
</linearGradient>
<linearGradient id="paint1_linear_10_32" x1="199.556" y1="-7.96745" x2="195.942" y2="179.143" gradientUnits="userSpaceOnUse">
<stop stop-color="#CBACF9"/>
<stop offset="0.48" stop-color="#A88ECE" stop-opacity="0.92"/>
<stop offset="1" stop-color="#786693"/>
</linearGradient>
<linearGradient id="paint2_linear_10_32" x1="286.034" y1="287.122" x2="284.894" y2="373.191" gradientUnits="userSpaceOnUse">
<stop stop-color="#CBACF9"/>
<stop offset="0.48" stop-color="#A88ECE" stop-opacity="0.92"/>
<stop offset="1" stop-color="#786693"/>
</linearGradient>
<linearGradient id="paint3_linear_10_32" x1="28.7007" y1="287.821" x2="27.587" y2="372.903" gradientUnits="userSpaceOnUse">
<stop stop-color="#CBACF9"/>
<stop offset="0.48" stop-color="#A88ECE" stop-opacity="0.92"/>
<stop offset="1" stop-color="#786693"/>
</linearGradient>
<linearGradient id="paint4_linear_10_32" x1="76.7007" y1="287.873" x2="75.6155" y2="371.859" gradientUnits="userSpaceOnUse">
<stop stop-color="#CBACF9"/>
<stop offset="0.48" stop-color="#A88ECE" stop-opacity="0.92"/>
<stop offset="1" stop-color="#786693"/>
</linearGradient>
<linearGradient id="paint5_linear_10_32" x1="129.183" y1="287.873" x2="128.139" y2="371.86" gradientUnits="userSpaceOnUse">
<stop stop-color="#CBACF9"/>
<stop offset="0.48" stop-color="#A88ECE" stop-opacity="0.92"/>
<stop offset="1" stop-color="#786693"/>
</linearGradient>
<linearGradient id="paint6_linear_10_32" x1="180.72" y1="287.873" x2="179.634" y2="371.859" gradientUnits="userSpaceOnUse">
<stop stop-color="#CBACF9"/>
<stop offset="0.48" stop-color="#A88ECE" stop-opacity="0.92"/>
<stop offset="1" stop-color="#786693"/>
</linearGradient>
<linearGradient id="paint7_linear_10_32" x1="233.356" y1="287.733" x2="232.233" y2="371.858" gradientUnits="userSpaceOnUse">
<stop stop-color="#CBACF9"/>
<stop offset="0.48" stop-color="#A88ECE" stop-opacity="0.92"/>
<stop offset="1" stop-color="#786693"/>
</linearGradient>
<linearGradient id="paint8_linear_10_32" x1="323.766" y1="287.873" x2="320.191" y2="371.721" gradientUnits="userSpaceOnUse">
<stop stop-color="#CBACF9"/>
<stop offset="0.48" stop-color="#A88ECE" stop-opacity="0.92"/>
<stop offset="1" stop-color="#786693"/>
</linearGradient>
<linearGradient id="paint9_linear_10_32" x1="364.456" y1="287.593" x2="363.414" y2="371.86" gradientUnits="userSpaceOnUse">
<stop stop-color="#CBACF9"/>
<stop offset="0.48" stop-color="#A88ECE" stop-opacity="0.92"/>
<stop offset="1" stop-color="#786693"/>
</linearGradient>
<linearGradient id="paint10_linear_10_32" x1="199.5" y1="390.875" x2="199.5" y2="441.875" gradientUnits="userSpaceOnUse">
<stop stop-color="#CBACF9"/>
<stop offset="0.48" stop-color="#A88ECE"/>
<stop offset="1" stop-color="#786693"/>
</linearGradient>
</defs>
</svg>
